<svg width="323" height="323" viewBox="0 0 323 323" fill="none" xmlns="http://www.w3.org/2000/svg">
<g clip-path="url(#clip0)">
<path d="M118.679 58.5854L157.108 95.7007C158.33 96.8817 159.91 97.4715 161.49 97.4715C163.07 97.4715 164.65 96.8817 165.872 95.702L204.319 58.5866C204.374 58.5336 204.428 58.4794 204.481 58.4245C217.401 45.0124 217.4 23.2062 204.48 9.8168C198.845 3.97126 191.13 0.946286 182.76 1.28758C174.932 1.61058 167.379 4.81913 161.5 10.3139C155.612 4.81598 148.063 1.61058 140.239 1.28758C131.868 0.944394 124.153 3.97063 118.522 9.81365C105.599 23.2062 105.598 45.0124 118.518 58.4245C118.571 58.4788 118.625 58.5324 118.679 58.5854ZM127.604 18.5719C134.71 11.1996 146.27 13.3408 152.907 19.5522L153.258 19.8809C155.812 22.2738 158.018 24.3411 161.494 24.3411C164.962 24.3411 167.173 22.2782 169.732 19.8897L170.094 19.5516C176.73 13.3414 188.292 11.199 195.398 18.5744C203.639 27.1143 203.661 41.0059 195.468 49.5937L161.492 82.3934L127.531 49.5931C119.338 41.0059 119.361 27.1143 127.604 18.5719Z" fill="#01579B"/>
<path d="M322.999 272.517C322.445 239.56 295.558 232.305 273.953 226.475C271.083 225.701 268.317 224.954 265.652 224.171V212.26C282.703 201.015 295.515 181.172 295.515 163.908V135.579C295.515 104.767 270.465 79.7003 239.672 79.7003C207.707 79.7003 182.668 104.245 182.668 135.579V163.908C182.668 181.194 195.477 201.031 212.531 212.267V224.171C209.864 224.955 207.097 225.702 204.226 226.477C202.316 226.991 200.365 227.519 198.395 228.073C198.33 228.089 198.266 228.109 198.203 228.127C198.166 228.137 198.128 228.147 198.091 228.158C184.294 232.055 169.605 237.362 161.491 249.806C159.825 247.252 157.886 244.995 155.731 242.993L143.784 162.78V139.624C143.784 106.582 116.92 79.7003 83.9005 79.7003C50.8801 79.7003 24.0162 106.582 24.0162 139.624V162.78L12.0683 242.994C5.00587 249.557 0.223324 258.815 0 272.521V272.623V315.43C0 318.914 2.82499 321.738 6.30859 321.738H55.5743C59.0579 321.738 61.8829 318.914 61.8829 315.43C61.8829 311.945 59.0579 309.121 55.5743 309.121H41.9439V280.659C41.9439 279.476 41.8449 275.681 41.8758 275.122C42.2436 274.814 43.0927 274.209 45.0484 273.097C53.5682 268.252 71.7754 269.219 79.4378 276.886C80.6207 278.07 82.2262 278.736 83.8999 278.736C85.5735 278.736 87.1791 278.07 88.3619 276.886C96.0244 269.219 114.23 268.252 122.75 273.097C124.707 274.209 125.556 274.814 125.923 275.122C125.954 275.681 125.855 309.121 125.855 309.121H112.225C108.742 309.121 105.917 311.945 105.917 315.43C105.917 318.914 108.742 321.738 112.225 321.738H161.491H239.064C239.068 321.738 239.072 321.739 239.077 321.739C239.079 321.739 239.081 321.738 239.082 321.738C239.085 321.738 316.692 321.738 316.692 321.738C320.176 321.738 323.001 318.913 323.001 315.429V272.623C323 272.588 323 272.553 322.999 272.517ZM141.632 233.976C134.243 230.65 126.194 228.478 118.769 226.475C115.9 225.701 113.134 224.954 110.469 224.17V213.941C121.379 206.13 130.158 194.548 134.018 182.855L141.632 233.976ZM93.2013 209.068C86.2486 211.651 81.5682 211.655 74.6527 209.086C58.7507 203.176 44.2687 184.782 44.2687 170.494V162.663C53.1152 157.273 59.6913 151.961 65.0485 145.894C79.9709 155.607 99.5774 162.793 123.53 167.336V170.494C123.53 184.762 109.071 203.15 93.2013 209.068ZM36.6327 139.624C36.6327 113.539 57.8366 92.3174 83.8999 92.3174C109.963 92.3174 131.166 113.539 131.166 139.624V155.888C103.84 151.298 82.4804 143.378 67.6016 132.308C66.5065 131.493 65.1842 131.06 63.8354 131.06C63.5282 131.06 63.219 131.083 62.9118 131.129C61.2539 131.374 59.7619 132.269 58.7652 133.615C54.2211 139.754 48.4399 145.51 36.6327 152.543V139.624ZM33.7825 182.851C37.6421 194.554 46.4262 206.139 57.3483 213.953V224.171C54.6829 224.954 51.9166 225.7 49.0481 226.473C41.6172 228.478 33.5617 230.65 26.1674 233.978L33.7825 182.851ZM155.182 309.12H138.472V280.658C138.472 279.601 138.497 278.677 138.518 277.859C138.722 270.113 137.434 266.933 128.988 262.128C117.522 255.607 96.9069 255.641 83.8999 264.326C70.8934 255.641 50.2782 255.608 38.8105 262.128C30.3645 266.932 29.0763 270.113 29.2807 277.859C29.3022 278.676 29.3268 279.6 29.3268 280.657V309.12H12.6172V272.676C12.9944 250.833 27.8764 245.251 52.3336 238.655C56.7597 237.461 61.3366 236.227 65.6371 234.805C68.2211 233.95 69.9655 231.536 69.9655 228.815V220.797C70.0632 220.834 70.1598 220.876 70.2582 220.913C75.0956 222.71 79.4908 223.609 83.8904 223.609C88.3064 223.609 92.7275 222.703 97.6021 220.892C97.6854 220.861 97.7674 220.825 97.8513 220.793V228.815C97.8513 231.535 99.5957 233.949 102.178 234.804C106.478 236.227 111.055 237.461 115.481 238.655C139.927 245.252 154.803 250.836 155.182 272.674V309.12ZM269.305 238.286L260.349 256.846L248.638 246.281L260.786 235.883C263.598 236.734 266.469 237.519 269.305 238.286ZM239.114 237.825L225.149 225.689V218.616C230.081 220.376 234.601 221.267 239.111 221.267C243.618 221.267 248.126 220.377 253.035 218.619V225.91L239.114 237.825ZM239.672 92.3174C263.507 92.3174 282.898 111.725 282.898 135.579V135.792C254.732 148.608 243.441 143.162 231.525 137.4C222.312 132.944 212.034 127.986 195.482 131.455C197.55 109.202 216.213 92.3174 239.672 92.3174ZM195.285 163.908V144.459C209.298 140.672 216.781 144.284 226.033 148.759C233.567 152.403 241.646 156.311 253.26 156.31C261.179 156.31 270.745 154.49 282.898 149.534V163.908C282.898 171.271 279.349 180.135 273.161 188.225C266.747 196.613 258.097 203.278 249.424 206.514C241.728 209.395 236.524 209.399 228.794 206.526C211.257 200.018 195.285 179.705 195.285 163.908ZM217.582 235.829L229.568 246.246L217.82 256.854L214.047 249.034L213.692 248.281C213.664 248.224 213.632 248.171 213.603 248.115L208.862 238.293C211.764 237.508 214.708 236.701 217.582 235.829ZM167.799 309.12V272.709C168.073 256.236 176.591 249.003 191.237 243.615L182.417 281.835C181.817 284.438 182.921 287.138 185.176 288.574L217.434 309.12H167.799ZM195.714 280.327L201.998 253.097L223.758 298.189L195.714 280.327ZM223.534 268.694L239.084 254.654L254.635 268.684L239.082 300.914L223.534 268.694ZM276.171 253.089L282.466 280.328L254.404 298.196L276.171 253.089ZM310.383 309.12H260.737L293.006 288.575C295.26 287.139 296.366 284.437 295.764 281.832L286.931 243.615C301.566 249 310.089 256.226 310.383 272.678V309.12Z" fill="#01579B"/>
<path d="M83.8999 309.12C80.4163 309.12 77.5913 311.945 77.5913 315.429C77.5913 318.913 80.4163 321.738 83.8999 321.738H83.9359C87.4195 321.738 90.2268 318.913 90.2268 315.429C90.2268 311.945 87.3841 309.12 83.8999 309.12Z" fill="#01579B"/>
</g>
<defs>
<clipPath id="clip0">
<rect width="323" height="323" fill="white"/>
</clipPath>
</defs>
</svg>
